HIERARCHY
ROOT Hips
{
	OFFSET 0.00000 0.00000 0.00000
	CHANNELS 6 Xposition Yposition Zposition Zrotation Yrotation Xrotation 
	JOINT LHipJoint
	{
		OFFSET 0 0 0
		CHANNELS 3 Zrotation Yrotation Xrotation
		JOINT LeftUpLeg
		{
			OFFSET 3.13874 -1.57224 1.49786
			CHANNELS 3 Zrotation Yrotation Xrotation
			JOINT LeftLeg
			{
				OFFSET 2.10955 -5.79594 0.00000
				CHANNELS 3 Zrotation Yrotation Xrotation
				JOINT LeftFoot
				{
					OFFSET 2.41843 -6.64458 0.00000
					CHANNELS 3 Zrotation Yrotation Xrotation
					JOINT LeftToeBase
					{
						OFFSET 0.04713 -0.12948 1.66229
						CHANNELS 3 Zrotation Yrotation Xrotation
						End Site
						{
							OFFSET 0.00000 -0.00000 0.85167
						}
					}
				}
			}
		}
	}
	JOINT RHipJoint
	{
		OFFSET 0 0 0
		CHANNELS 3 Zrotation Yrotation Xrotation
		JOINT RightUpLeg
		{
			OFFSET -3.13988 -1.57224 1.49786
			CHANNELS 3 Zrotation Yrotation Xrotation
			JOINT RightLeg
			{
				OFFSET -2.15006 -5.90725 0.00000
				CHANNELS 3 Zrotation Yrotation Xrotation
				JOINT RightFoot
				{
					OFFSET -2.34496 -6.44273 0.00000
					CHANNELS 3 Zrotation Yrotation Xrotation
					JOINT RightToeBase
					{
						OFFSET -0.08699 -0.23900 1.55223
						CHANNELS 3 Zrotation Yrotation Xrotation
						End Site
						{
							OFFSET -0.00000 -0.00000 0.80281
						}
					}
				}
			}
		}
	}
	JOINT LowerBack
	{
		OFFSET 0 0 0
		CHANNELS 3 Zrotation Yrotation Xrotation
		JOINT Spine
		{
			OFFSET 0.01292 1.96517 -0.16495
			CHANNELS 3 Zrotation Yrotation Xrotation
			JOINT Spine1
			{
				OFFSET 0.02122 1.88666 0.19706
				CHANNELS 3 Zrotation Yrotation Xrotation
				JOINT Neck
				{
					OFFSET 0 0 0
					CHANNELS 3 Zrotation Yrotation Xrotation
					JOINT Neck1
					{
						OFFSET -0.01683 1.81591 0.07903
						CHANNELS 3 Zrotation Yrotation Xrotation
						JOINT Head
						{
							OFFSET 0.00815 1.74013 -0.47700
							CHANNELS 3 Zrotation Yrotation Xrotation
							End Site
							{
								OFFSET -0.00204 1.83225 -0.16933
							}
						}
					}
				}
				JOINT LeftShoulder
				{
					OFFSET 0 0 0
					CHANNELS 3 Zrotation Yrotation Xrotation
					JOINT LeftArm
					{
						OFFSET 3.38482 1.41533 0.19802
						CHANNELS 3 Zrotation Yrotation Xrotation
						JOINT LeftForeArm
						{
							OFFSET 4.32712 -0.00000 0.00000
							CHANNELS 3 Zrotation Yrotation Xrotation
							JOINT LeftHand
							{
								OFFSET 3.28587 -0.00000 -0.00000
								CHANNELS 3 Zrotation Yrotation Xrotation
								JOINT LeftFingerBase
								{
									OFFSET 0 0 0
									CHANNELS 3 Zrotation Yrotation Xrotation
									JOINT LeftHandIndex1
									{
										OFFSET 0.43316 -0.00000 -0.00000
										CHANNELS 3 Zrotation Yrotation Xrotation
										End Site
										{
											OFFSET 0.34922 -0.00000 -0.00000
										}
									}
								}
								JOINT LThumb
								{
									OFFSET 0 0 0
									CHANNELS 3 Zrotation Yrotation Xrotation
									End Site
									{
										OFFSET 0.35456 -0.00000 0.35456
									}
								}
							}
						}
					}
				}
				JOINT RightShoulder
				{
					OFFSET 0 0 0
					CHANNELS 3 Zrotation Yrotation Xrotation
					JOINT RightArm
					{
						OFFSET -3.09725 1.62858 -0.14144
						CHANNELS 3 Zrotation Yrotation Xrotation
						JOINT RightForeArm
						{
							OFFSET -4.29104 -0.00000 0.00000
							CHANNELS 3 Zrotation Yrotation Xrotation
							JOINT RightHand
							{
								OFFSET -3.22720 -0.00000 -0.00000
								CHANNELS 3 Zrotation Yrotation Xrotation
								JOINT RightFingerBase
								{
									OFFSET 0 0 0
									CHANNELS 3 Zrotation Yrotation Xrotation
									JOINT RightHandIndex1
									{
										OFFSET -0.54362 -0.00000 -0.00000
										CHANNELS 3 Zrotation Yrotation Xrotation
										End Site
										{
											OFFSET -0.43828 -0.00000 -0.00000
										}
									}
								}
								JOINT RThumb
								{
									OFFSET 0 0 0
									CHANNELS 3 Zrotation Yrotation Xrotation
									End Site
									{
										OFFSET -0.44497 -0.00000 0.44497
									}
								}
							}
						}
					}
				}
			}
		}
	}
}
MOTION
Frames: 15
Frame Time: .0083333
-32.6021 15.7418 3.1921 0 0 0 0 0 0 -21 0 0 0 0 0 0 0 0 0 0 0 0 0 0 21 0 0 0 0 0 0 0 0 0 0 0 0 0 0 0 0 0 0 0 0 0 0 -16 0 0 21 0 0 11 0 0 0 -8 0 0 0 0 0 0 0 0 0 0 0 0 0 0 0 0 0 0 0 0 8 0 0 0 0 0 0 0 0 0 0 0 0 0 0 0 0 0
-32.6021 15.7418 3.1921 -174.0390 30.1443 -169.4910 0.0000 0.0000 0.0000 4.3499 -41.4570 -26.9104 0.1641 2.6102 7.1953 1.9695 1.0805 26.2487 14.9989 -19.3895 -75.2335 0.0000 0.0000 0.0000 44.8681 8.8538 10.9409 -0.0007 -0.1720 0.4725 -0.3288 -4.4724 -13.4125 -0.9641 6.2519 -17.5170 -9.2450 -5.2097 18.3988 14.6507 -5.1645 -12.6447 27.1486 2.9681 -24.3118 -7.3980 -2.6149 -14.2169 -10.2151 10.1424 46.6702 -1.0204 3.2332 22.8894 0.0000 -0.0000 0.0000 -116.9389 35.6060 -15.2856 21.3700 -32.2577 -6.2463 -0.0000 -0.0000 1.8831 24.8989 24.7834 11.0105 -7.1250 0.0000 -0.0000 -5.1182 56.8840 -1.4932 0.0000 -0.0000 0.0000 41.4057 -14.8824 82.2537 -24.0365 35.2029 -7.7276 0.0000 -0.0000 -21.1620 -25.1358 -17.0390 7.8282 7.1250 -0.0000 -0.0000 2.6924 -48.6638 -0.2435
-32.5015 15.7060 2.9287 -174.0760 31.8341 -169.2930 0.0000 0.0000 0.0000 6.7108 -45.9739 -28.4631 0.2271 3.0675 8.4667 2.2814 2.4692 27.9389 14.8217 -19.3446 -74.6991 0.0000 0.0000 0.0000 44.6703 8.9566 12.2540 -0.0006 -0.1621 0.4453 -0.3671 -3.4788 -13.2594 -0.7590 5.5640 -15.5245 -9.2386 -5.0304 17.8144 14.5128 -4.9692 -12.6117 26.6950 2.8846 -23.9221 -7.2958 -2.4211 -14.2475 -9.9166 10.0591 46.5141 -0.9047 3.2090 22.6772 0.0000 -0.0000 0.0000 -116.6833 36.0115 -14.9278 21.4040 -32.2969 -6.2644 -0.0000 -0.0000 1.2226 25.6493 25.1759 11.5448 -7.1250 0.0000 -0.0000 -4.4486 57.4635 -1.3596 0.0000 -0.0000 0.0000 41.9108 -14.9411 81.7728 -23.9892 35.1529 -7.7003 0.0000 -0.0000 -21.0337 -25.3715 -17.4776 8.1059 7.1250 -0.0000 -0.0000 2.5507 -49.1753 -0.2628
-32.3957 15.6724 2.6624 -173.5330 33.3706 -168.7600 0.0000 0.0000 0.0000 7.0173 -45.3526 -29.0219 0.2144 2.9813 8.2266 1.9916 3.4564 25.8327 14.6020 -19.2865 -74.0347 0.0000 0.0000 0.0000 44.9882 9.1342 13.3419 -0.0019 -0.2801 0.7697 -0.4002 -2.5241 -13.1424 -0.4418 4.2648 -11.8228 -8.7897 -4.9391 17.2179 14.5312 -4.6768 -12.5597 26.1349 2.8222 -23.5866 -7.1839 -2.3204 -14.2634 -9.6702 9.8520 46.3793 -0.8497 3.1372 22.4866 0.0000 0.0000 0.0000 -116.3883 36.1657 -15.1893 21.1792 -32.0369 -6.1447 -0.0000 -0.0000 1.2159 26.1217 25.2940 11.8332 -7.1250 0.0000 -0.0000 -3.9724 57.6949 -1.2359 0.0000 0.0000 0.0000 42.4071 -14.9476 81.4503 -23.8404 34.9951 -7.6149 0.0000 -0.0000 -21.1672 -25.8579 -17.4212 8.2563 7.1250 -0.0000 -0.0000 2.0632 -49.1923 -0.2134
-32.2867 15.6422 2.4004 -172.8490 34.8776 -168.1030 0.0000 0.0000 0.0000 6.3099 -43.3327 -29.4050 0.2203 3.0215 8.3386 1.5498 3.8728 22.6009 14.6739 -19.3058 -74.2525 0.0000 0.0000 0.0000 45.4101 9.4786 14.2857 -0.0060 -0.5002 1.3746 -0.4243 -1.7547 -13.0687 -0.2645 3.3083 -9.1382 -8.3465 -4.8312 16.7191 14.5751 -4.3520 -12.5359 25.6589 2.8284 -23.3872 -7.1303 -2.2531 -14.2165 -9.2938 9.5436 46.2786 -0.7383 3.0343 22.2742 0.0000 0.0000 0.0000 -115.9156 35.9452 -16.0832 20.5156 -31.2585 -5.7965 -0.0000 -0.0000 1.9973 26.1921 25.0743 11.7752 -7.1250 0.0000 -0.0000 -3.8123 57.4780 -1.1660 0.0000 0.0000 0.0000 42.7921 -15.2204 81.0426 -23.7127 34.8590 -7.5417 0.0000 -0.0000 -20.9992 -26.1999 -16.7204 8.0576 7.1250 -0.0000 -0.0000 1.5983 -48.4838 -0.1374
-32.1692 15.6118 2.1348 -172.5070 36.3815 -167.6610 0.0000 0.0000 0.0000 5.7004 -42.7947 -29.3909 0.3374 3.7325 10.3254 1.4989 5.1126 22.0455 15.1585 -19.4285 -75.7136 0.0000 0.0000 0.0000 45.1232 9.0595 14.5160 -0.0207 -0.9278 2.5503 -0.4462 -0.0846 -12.6517 -0.2239 3.0455 -8.4056 -8.3212 -4.6341 16.2697 14.5690 -4.0535 -12.5436 25.4582 2.9146 -23.2346 -7.1924 -2.2416 -14.1518 -8.8663 9.1887 46.2108 -0.5881 2.9055 22.0788 -0.0000 0.0000 0.0000 -115.4907 35.8581 -16.5462 19.9196 -30.5454 -5.4904 -0.0000 -0.0000 2.5736 26.3067 24.8235 11.7254 -7.1250 0.0000 -0.0000 -3.5945 57.2377 -1.0784 -0.0000 0.0000 0.0000 43.0192 -15.8137 80.3246 -23.5782 34.7150 -7.4650 0.0000 -0.0000 -20.5155 -25.7063 -16.7985 7.9207 7.1250 -0.0000 -0.0000 2.0920 -48.4920 -0.1803
-32.0467 15.5828 1.8616 -172.1690 37.7595 -167.3300 0.0000 0.0000 0.0000 3.9318 -41.4002 -29.2132 0.4614 4.3573 12.0842 1.0688 4.1970 18.5910 15.2510 -19.4505 -75.9916 0.0000 0.0000 0.0000 45.0779 9.1910 15.1306 -0.0474 -1.4058 3.8661 -0.4590 0.7380 -12.5624 -0.1735 2.6833 -7.3982 -8.2433 -4.4379 15.8748 14.6149 -3.7208 -12.5126 25.2948 3.0218 -23.0899 -7.7341 -2.2882 -13.7544 -8.3324 8.7997 46.1617 -0.4067 2.7396 21.5804 -0.0000 0.0000 0.0000 -115.1708 35.8848 -16.4491 19.4831 -30.0145 -5.2703 -0.0000 -0.0000 2.8897 26.5127 25.1359 11.9639 -7.1250 0.0000 -0.0000 -3.4805 57.6157 -1.0759 -0.0000 0.0000 0.0000 43.0482 -16.4093 79.5395 -23.4277 34.5532 -7.3794 0.0000 -0.0000 -20.2813 -25.0717 -17.2344 7.8915 7.1250 -0.0000 -0.0000 2.7938 -48.8648 -0.2665
-31.9248 15.5569 1.5808 -171.6360 38.9747 -166.9780 0.0000 0.0000 0.0000 2.8407 -41.1874 -28.3450 0.5436 4.7238 13.1225 0.7652 1.4329 16.1027 14.2203 -19.1795 -72.8761 0.0000 0.0000 0.0000 44.8008 8.6078 15.6234 -0.0749 -1.7652 4.8572 -0.4195 1.7650 -11.7497 -0.1054 2.0931 -5.7631 -7.7085 -4.3604 15.6294 14.6248 -3.4404 -12.4848 24.7710 3.0181 -23.0397 -7.9960 -2.2925 -13.7603 -7.9089 8.5590 46.1368 -0.1990 2.6214 21.4817 -0.0000 0.0000 0.0000 -114.6096 35.9775 -16.0742 19.0932 -29.5343 -5.0767 -0.0000 -0.0000 3.0997 26.9229 25.7207 12.4288 -7.1250 0.0000 -0.0000 -3.2401 58.3315 -1.0573 -0.0000 0.0000 0.0000 43.2135 -16.8439 79.0218 -23.2346 34.3443 -7.2702 0.0000 -0.0000 -20.3897 -29.5081 -17.1071 9.4520 7.1250 -0.0000 -0.0000 -1.5949 -49.4492 0.1750
-31.8032 15.5341 1.2913 -171.1220 40.1006 -166.6340 0.0000 0.0000 0.0000 1.7748 -41.0495 -28.3979 0.7534 5.5438 15.4663 0.4322 -1.3693 12.9911 12.5627 -18.6185 -67.7616 0.0000 0.0000 0.0000 44.6377 8.3994 16.1187 -0.1205 -2.2379 6.1635 -0.3875 2.5417 -11.1571 -0.0517 1.4678 -4.0370 -6.8891 -4.4026 15.4654 14.4899 -3.3017 -12.5507 23.8907 2.8792 -23.1006 -8.0303 -2.2633 -13.5968 -7.4278 8.2207 46.1141 -0.0268 2.5179 21.3233 0.0000 0.0000 0.0000 -113.7108 36.2975 -15.4421 18.7933 -29.1610 -4.9297 -0.0000 -0.0000 2.8761 26.8521 25.5998 12.3393 -7.1250 0.0000 -0.0000 -3.2741 58.1866 -1.0570 0.0000 0.0000 0.0000 43.6198 -17.2555 78.9595 -23.0728 34.1684 -7.1792 0.0000 -0.0000 -20.7397 -29.2397 -17.4532 9.5308 7.1250 -0.0000 -0.0000 -1.2782 -49.7901 0.1510
-31.6761 15.5151 0.9990 -171.0130 41.2421 -166.5780 0.0000 0.0000 0.0000 0.6117 -41.1790 -27.3792 0.8547 5.8961 16.4832 0.0304 -7.9852 11.9903 13.2339 -18.8650 -69.8505 0.0000 0.0000 0.0000 44.5265 8.9292 16.8393 -0.1950 -2.8435 7.8434 -0.3837 2.4523 -11.1110 -0.0225 0.9690 -2.6636 -6.3981 -4.4074 15.2810 14.2713 -3.2510 -12.6183 23.1573 2.7287 -23.0844 -8.0552 -2.3272 -13.4669 -7.0469 7.8223 46.1650 0.0795 2.3830 21.2525 0.0000 0.0000 0.0000 -112.8224 36.4486 -14.9937 18.4371 -28.7133 -4.7574 -0.0000 -0.0000 2.8989 26.3719 25.2208 11.9290 -7.1250 0.0000 -0.0000 -3.6678 57.6741 -1.1391 0.0000 0.0000 0.0000 44.0026 -17.6981 78.7072 -22.8727 33.9493 -7.0671 0.0000 -0.0000 -20.6751 -26.9425 -18.2725 9.0545 7.1250 -0.0000 -0.0000 1.1565 -50.3001 -0.1511
-31.5398 15.5035 0.7099 -171.4140 42.3983 -166.9170 0.0000 0.0000 0.0000 -1.3169 -39.6019 -28.1477 1.2694 7.1411 20.1341 0.0291 -7.3544 11.1155 13.5417 -18.9691 -70.7999 0.0000 0.0000 0.0000 43.2506 8.2873 16.5525 -0.3208 -3.6409 10.0684 -0.3150 3.0554 -9.9893 -0.0576 1.5482 -4.2587 -6.3480 -4.3463 15.1315 13.9935 -3.2801 -12.6268 22.6767 2.5855 -22.9493 -8.1180 -2.4424 -13.5747 -6.8291 7.4241 46.1211 0.1088 2.2054 21.2096 -0.0000 0.0000 0.0000 -112.0942 36.1851 -14.9576 18.0181 -28.1804 -4.5578 -0.0000 -0.0000 3.4734 26.4473 25.2463 11.9783 -7.1250 0.0000 -0.0000 -3.5936 57.7181 -1.1198 -0.0000 0.0000 0.0000 44.4909 -18.2181 77.5313 -22.4546 33.4870 -6.8350 0.0000 -0.0000 -20.0198 -25.4134 -18.7709 8.6925 7.1250 -0.0000 -0.0000 2.7869 -50.5790 -0.3834
-31.3925 15.5044 0.4259 -172.2780 43.5401 -167.6220 0.0000 0.0000 0.0000 -3.4708 -38.6507 -27.3029 1.5147 7.7721 22.0240 0.0110 -9.6690 13.9600 14.3979 -19.2303 -73.4160 0.0000 0.0000 0.0000 41.7074 7.7930 16.0820 -0.5175 -4.6107 12.8015 -0.2482 3.1075 -8.8524 -0.1292 2.3172 -6.3833 -6.6804 -4.2560 15.0311 13.6288 -3.4203 -12.6290 22.3849 2.4363 -22.7702 -8.3491 -2.5676 -13.7836 -6.3788 6.9559 46.0894 0.2728 1.9892 21.1810 0.0000 -0.0000 0.0000 -111.3707 35.8328 -15.0031 17.6810 -27.7467 -4.3997 -0.0000 -0.0000 4.3500 26.3610 25.3778 11.9908 -7.1250 0.0000 -0.0000 -3.7386 57.8381 -1.1759 0.0000 -0.0000 0.0000 44.9811 -18.9333 76.0382 -22.0853 33.0732 -6.6323 0.0000 -0.0000 -19.6475 -25.3906 -18.3305 8.4900 7.1250 -0.0000 -0.0000 2.7116 -50.1001 -0.3411
-31.2340 15.5168 0.1516 -173.5810 44.6282 -168.7380 0.0000 0.0000 0.0000 -6.1181 -37.4468 -25.9064 1.6830 8.1719 23.2374 0.0912 -10.1275 15.8031 14.8233 -19.3450 -74.7040 0.0000 0.0000 0.0000 39.7905 7.0908 15.2148 -0.8142 -5.7579 16.0836 -0.1767 2.7443 -7.4671 -0.0799 1.8235 -5.0181 -7.6101 -4.1009 14.9426 13.1957 -3.6643 -12.6522 22.4563 2.3371 -22.5553 -8.4268 -2.7985 -13.6991 -6.0656 6.2997 46.0293 0.2993 1.7335 21.0596 0.0000 -0.0000 0.0000 -110.5051 35.6574 -14.6445 17.4421 -27.4369 -4.2891 -0.0000 -0.0000 4.9937 25.8952 25.1467 11.6563 -7.1250 0.0000 -0.0000 -4.1669 57.4879 -1.2757 0.0000 -0.0000 0.0000 45.2408 -19.9804 74.7664 -21.9610 32.9329 -6.5646 0.0000 -0.0000 -19.4619 -25.7983 -17.6609 8.3430 7.1250 -0.0000 -0.0000 2.1691 -49.4429 -0.2377
-31.0733 15.5362 -0.1095 -175.0090 45.6006 -169.9760 0.0000 0.0000 0.0000 -9.0192 -35.8852 -24.0106 1.7018 8.2152 23.3697 0.2193 -9.3410 16.5986 14.9668 -19.3815 -75.1367 0.0000 0.0000 0.0000 37.7557 6.1008 13.8693 -1.2223 -7.0123 19.7519 -0.1000 1.7051 -5.6219 -0.0045 0.4309 -1.1839 -8.7443 -3.9401 14.8912 12.7288 -3.9595 -12.7096 22.6489 2.2593 -22.3816 -8.2554 -3.0928 -13.3665 -5.9790 5.5573 45.9696 0.1492 1.4794 20.8886 0.0000 -0.0000 0.0000 -109.4604 35.5401 -13.9071 17.2849 -27.2318 -4.2169 -0.0000 -0.0000 4.9832 26.5835 25.4161 12.1211 -7.1250 0.0000 -0.0000 -3.5055 57.9295 -1.1101 0.0000 -0.0000 0.0000 45.5327 -21.1573 73.3151 -21.8932 32.8561 -6.5278 0.0000 -0.0000 -19.1408 -25.2044 -17.8284 8.1999 7.1250 -0.0000 -0.0000 2.7872 -49.5274 -0.3114
-30.9168 15.5600 -0.3577 -176.4130 46.5039 -171.2030 0.0000 0.0000 0.0000 -11.8200 -34.3675 -21.7218 1.6076 7.9959 22.7017 0.3678 -8.3199 17.3812 15.0349 -19.3984 -75.3418 0.0000 0.0000 0.0000 34.9236 3.8409 11.3030 -1.8089 -8.4561 24.1083 -0.0188 0.5070 -2.4605 -0.0086 -0.5989 1.6458 -9.7086 -3.8150 14.9343 12.2471 -4.2578 -12.7637 22.7099 2.1577 -22.2765 -8.1596 -3.2879 -13.1341 -5.7016 4.9834 46.0499 0.1486 1.2979 20.8404 -0.0000 0.0000 0.0000 -108.3630 35.2761 -13.4023 17.2100 -27.1338 -4.1827 -0.0000 -0.0000 5.1793 27.7209 26.3824 13.1431 -7.1250 0.0000 -0.0000 -2.5865 59.2246 -0.8992 -0.0000 0.0000 0.0000 46.0079 -21.8717 72.0753 -21.6251 32.5507 -6.3829 0.0000 -0.0000 -19.0872 -24.2998 -18.3369 8.0846 7.1250 -0.0000 -0.0000 3.7899 -49.9258 -0.4608
